<svg width="63" height="63" viewBox="0 0 63 63" fill="none" xmlns="http://www.w3.org/2000/svg">
<path d="M28.2682 2.90748C29.836 1.31047 32.4091 1.31047 33.977 2.90748L37.2598 6.25144C38.1751 7.18371 39.4879 7.61027 40.7763 7.39402L45.3978 6.61833C47.6049 6.24787 49.6865 7.76028 50.0162 9.97385L50.7066 14.6088C50.8991 15.901 51.7105 17.0177 52.8799 17.6001L57.0747 19.689C59.078 20.6866 59.8731 23.1337 58.8388 25.1183L56.673 29.2738C56.0691 30.4324 56.0691 31.8128 56.673 32.9713L58.8388 37.1269C59.8731 39.1115 59.078 41.5586 57.0747 42.5562L52.8799 44.6451C51.7105 45.2274 50.8991 46.3442 50.7066 47.6364L50.0162 52.2713C49.6865 54.4849 47.6049 55.9973 45.3978 55.6268L40.7763 54.8511C39.4879 54.6349 38.1751 55.0615 37.2598 55.9937L33.977 59.3377C32.4091 60.9347 29.8361 60.9347 28.2682 59.3377L24.9853 55.9937C24.0701 55.0615 22.7573 54.6349 21.4688 54.8511L16.8474 55.6268C14.6403 55.9973 12.5586 54.4849 12.2289 52.2713L11.5385 47.6364C11.3461 46.3442 10.5347 45.2274 9.36523 44.6451L5.17048 42.5562C3.16714 41.5586 2.37202 39.1115 3.40638 37.1269L5.5722 32.9713C6.17602 31.8128 6.17602 30.4324 5.5722 29.2738L3.40638 25.1183C2.37202 23.1337 3.16713 20.6866 5.17048 19.689L9.36523 17.6001C10.5347 17.0177 11.3461 15.901 11.5385 14.6088L12.2289 9.97385C12.5586 7.76028 14.6403 6.24787 16.8474 6.61833L21.4688 7.39402C22.7572 7.61027 24.0701 7.18371 24.9853 6.25144L28.2682 2.90748Z" fill="white"/>
<path d="M27.8326 43.1677L40.1026 18.5677H35.9026L23.6326 43.1677H27.8326ZM30.4426 25.7977C30.4426 21.7477 27.5326 19.8577 24.0826 19.8577C20.6026 19.8577 17.7226 21.7477 17.7226 25.7977C17.7226 29.8477 20.6026 31.7377 24.0826 31.7377C27.5326 31.7377 30.4426 29.8477 30.4426 25.7977ZM22.8226 25.7977C22.8226 25.2277 23.0026 24.4177 24.0826 24.4177C25.1626 24.4177 25.3426 25.2277 25.3426 25.7977C25.3426 26.3677 25.1626 27.1777 24.0826 27.1777C23.0026 27.1777 22.8226 26.3677 22.8226 25.7977ZM45.9826 35.9377C45.9826 31.8877 43.0726 29.9677 39.6226 29.9677C36.1726 29.9677 33.2926 31.8877 33.2926 35.9377C33.2926 39.9877 36.1726 41.8777 39.6226 41.8777C43.0726 41.8777 45.9826 39.9877 45.9826 35.9377ZM38.3626 35.9377C38.3626 35.3377 38.5426 34.5277 39.6226 34.5277C40.7026 34.5277 40.8826 35.3377 40.8826 35.9377C40.8826 36.5077 40.7026 37.3177 39.6226 37.3177C38.5426 37.3177 38.3626 36.5077 38.3626 35.9377Z" fill="#DD060C"/>
</svg>
