<svg width="41" height="41" viewBox="0 0 41 41" fill="none" xmlns="http://www.w3.org/2000/svg">
<rect x="34.9512" y="1.87793" width="33.3996" height="33.2434" rx="16.6217" transform="rotate(90 34.9512 1.87793)" stroke="white" stroke-width="2"/>
<path d="M35.7101 34.7825C35.9094 35.526 35.2289 36.2064 34.4854 36.0072L27.1831 34.0506C26.4395 33.8513 26.1904 32.9219 26.7348 32.3775L32.0804 27.0319C32.6248 26.4875 33.5542 26.7366 33.7535 27.4801L35.7101 34.7825Z" fill="white"/>
<path d="M19.7073 25.5781V15.0181H16.6493V25.5781H19.7073ZM19.9713 11.5201C19.9713 10.3321 19.1353 9.80412 18.1673 9.80412C17.2213 9.80412 16.3853 10.3321 16.3853 11.5201C16.3853 12.7301 17.2213 13.2581 18.1673 13.2581C19.1353 13.2581 19.9713 12.7301 19.9713 11.5201Z" fill="white"/>
</svg>
