<svg width="189" height="19" viewBox="0 0 189 19" fill="none" xmlns="http://www.w3.org/2000/svg">
<path d="M10.0132 0.552245V6.19225H3.73315V0.552245H0.733154V14.5522H3.73315V8.91225H10.0132V14.5522H13.0132V0.552245H10.0132ZM14.9317 9.75225C14.9317 13.1122 17.4517 14.8322 20.2317 14.8322C23.0317 14.8322 25.5317 13.1122 25.5317 9.75225C25.5317 6.39225 23.0317 4.67225 20.2317 4.67225C17.4517 4.67225 14.9317 6.39225 14.9317 9.75225ZM22.7117 9.75225C22.7117 11.2322 21.8317 12.3522 20.2317 12.3522C18.6517 12.3522 17.7717 11.2322 17.7717 9.75225C17.7717 8.27225 18.6517 7.15225 20.2317 7.15225C21.8317 7.15225 22.7117 8.27225 22.7117 9.75225ZM33.2267 14.5522C35.6467 14.5522 36.4467 13.3122 36.4467 11.9522C36.4467 10.7922 35.7867 10.0322 34.7467 9.69225C35.6867 9.33225 36.2267 8.59225 36.2267 7.49225C36.2267 6.19225 35.3467 4.95225 33.0667 4.95225H27.3467V14.5522H33.2267ZM30.1267 10.5722H32.4067C33.0867 10.5722 33.6867 10.8122 33.6867 11.6322C33.6867 12.3922 33.1067 12.6522 32.4067 12.6522H30.1267V10.5722ZM30.1067 6.85225H32.2067C32.8467 6.85225 33.4267 7.09225 33.4267 7.89225C33.4267 8.63225 32.8867 8.89225 32.2267 8.89225H30.1067V6.85225ZM37.7833 9.75225C37.7833 13.1122 40.3033 14.8322 43.0833 14.8322C45.8833 14.8322 48.3833 13.1122 48.3833 9.75225C48.3833 6.39225 45.8833 4.67225 43.0833 4.67225C40.3033 4.67225 37.7833 6.39225 37.7833 9.75225ZM45.5633 9.75225C45.5633 11.2322 44.6833 12.3522 43.0833 12.3522C41.5033 12.3522 40.6233 11.2322 40.6233 9.75225C40.6233 8.27225 41.5033 7.15225 43.0833 7.15225C44.6833 7.15225 45.5633 8.27225 45.5633 9.75225ZM49.6583 9.89225C49.6583 13.3122 52.2783 14.8322 54.8983 14.8322C56.1183 14.8322 57.1983 14.5922 58.1383 14.1922V11.7322C57.4383 12.1522 56.4583 12.4322 55.4383 12.4322C53.9383 12.4322 52.4983 11.5922 52.4983 9.75225C52.4983 7.81225 53.9583 7.07225 55.4783 7.07225C56.3983 7.07225 57.3583 7.35225 58.0383 7.79225V5.35225C57.1783 4.89225 56.1383 4.65225 55.0783 4.65225C52.4183 4.65225 49.6583 6.21225 49.6583 9.89225ZM65.0216 14.5522V7.29225H68.0816V4.95225H59.2016V7.29225H62.2616V14.5522H65.0216ZM72.0333 6.35225V4.95225H69.5733V18.9522H72.3533V13.5322C72.9733 14.2122 73.9933 14.8322 75.5133 14.8322C78.5533 14.8322 80.1933 12.3722 80.1933 9.75225C80.1933 7.13225 78.5533 4.67225 75.5133 4.67225C73.7333 4.67225 72.6333 5.49225 72.0333 6.35225ZM77.3533 9.75225C77.3533 11.2522 76.4133 12.4922 74.8333 12.4922C73.6133 12.4922 72.7133 11.7322 72.3333 10.8922V8.61225C72.7133 7.77225 73.6133 7.01225 74.8333 7.01225C76.4133 7.01225 77.3533 8.25225 77.3533 9.75225ZM81.4747 9.75225C81.4747 13.1122 83.9947 14.8322 86.7747 14.8322C89.5747 14.8322 92.0747 13.1122 92.0747 9.75225C92.0747 6.39225 89.5747 4.67225 86.7747 4.67225C83.9947 4.67225 81.4747 6.39225 81.4747 9.75225ZM89.2547 9.75225C89.2547 11.2322 88.3747 12.3522 86.7747 12.3522C85.1947 12.3522 84.3147 11.2322 84.3147 9.75225C84.3147 8.27225 85.1947 7.15225 86.7747 7.15225C88.3747 7.15225 89.2547 8.27225 89.2547 9.75225ZM101.69 2.99225V0.912245C100.63 1.49224 99.6497 1.67225 98.6297 1.67225C97.6097 1.67225 96.6297 1.49224 95.5697 0.912245V2.99225C96.4497 3.53225 97.3897 3.79225 98.6297 3.79225C99.8697 3.79225 100.81 3.53225 101.69 2.99225ZM96.3097 14.5522L100.59 9.15225V14.5522H103.35V4.95225H100.95L96.6697 10.3522V4.95225H93.8897V14.5522H96.3097ZM108.486 14.5522V10.7522H109.606L112.366 14.5522H115.486L111.906 9.69225L115.206 4.95225H112.086L109.646 8.53225H108.486V4.95225H105.706V14.5522H108.486ZM119.083 14.5522L123.363 9.15225V14.5522H126.123V4.95225H123.723L119.443 10.3522V4.95225H116.663V14.5522H119.083ZM131.48 13.1722C131.48 12.0522 130.7 11.5322 129.8 11.5322C128.9 11.5322 128.1 12.0522 128.1 13.1722C128.1 14.2922 128.9 14.8122 129.8 14.8122C130.7 14.8122 131.48 14.2922 131.48 13.1722Z" fill="white"/>
<path d="M133.16 4.25225C133.16 9.21225 140.82 8.23225 140.82 10.8522C140.82 11.8522 139.82 12.1922 138.2 12.1922C136.6 12.1922 134.84 11.7722 133.24 10.7122V13.5722C134.68 14.3722 136.48 14.8322 138.42 14.8322C141.36 14.8322 143.88 13.8522 143.88 10.7122C143.88 5.73225 136.22 6.63225 136.22 4.21225C136.22 3.35225 136.98 2.93225 138.5 2.91225C140.06 2.89225 141.64 3.31225 142.82 4.15225V1.35225C141.62 0.672246 139.94 0.272245 138.28 0.272245C135.52 0.272245 133.16 1.55225 133.16 4.25225ZM155.189 0.552245V6.19225H148.909V0.552245H145.909V14.5522H148.909V8.91225H155.189V14.5522H158.189V0.552245H155.189ZM160.402 7.55225C160.402 11.3522 162.882 14.8322 167.842 14.8322C172.802 14.8322 175.282 11.3522 175.282 7.55225C175.282 3.75225 172.802 0.272245 167.842 0.272245C162.882 0.272245 160.402 3.75225 160.402 7.55225ZM172.202 7.55225C172.202 10.0122 170.742 12.0522 167.842 12.0522C164.922 12.0522 163.462 10.0122 163.462 7.55225C163.462 5.09225 164.922 3.05225 167.842 3.05225C170.742 3.05225 172.202 5.09225 172.202 7.55225ZM177.51 0.552245V14.5522H180.51V9.95225H182.79C186.17 9.95225 188.83 8.87225 188.83 5.25225C188.83 1.63225 186.17 0.552245 182.79 0.552245H177.51ZM185.77 5.25225C185.77 6.89225 184.47 7.31225 182.93 7.31225H180.51V3.19225H182.93C184.47 3.19225 185.77 3.59225 185.77 5.25225Z" fill="#DD060C"/>
</svg>
