<svg width="15" height="18" viewBox="0 0 15 18" fill="none" xmlns="http://www.w3.org/2000/svg">
<path d="M2.42941 17.136V14.568H0.509399V12.24H2.42941V10.368H0.509399V7.392H2.42941V0H7.90141C10.1094 0 11.7174 0.448 12.7254 1.344C13.7494 2.24 14.2614 3.472 14.2614 5.04C14.2614 5.968 14.0534 6.84 13.6374 7.656C13.2214 8.472 12.5254 9.128 11.5494 9.624C10.5894 10.12 9.2774 10.368 7.6134 10.368H6.05341V12.24H9.7494V14.568H6.05341V17.136H2.42941ZM7.2534 7.392C8.2774 7.392 9.08541 7.216 9.67741 6.864C10.2854 6.512 10.5894 5.944 10.5894 5.16C10.5894 3.704 9.62941 2.976 7.70941 2.976H6.05341V7.392H7.2534Z" fill="currentColor"/>
</svg>
